<?xml version="1.0" encoding="UTF-8" standalone="no"?>
<svg
   width="100%"
   height="100%"
   viewBox="0 0 1024 1536"
   version="1.1"
   xml:space="preserve"
   style="fill-rule:evenodd;clip-rule:evenodd;stroke-linecap:round;stroke-linejoin:round;stroke-miterlimit:1.5;"
   id="svg36"
   sodipodi:docname="mizu.svg"
   inkscape:version="1.4.2 (ebf0e940d0, 2025-05-08)"
   xmlns:inkscape="http://www.inkscape.org/namespaces/inkscape"
   xmlns:sodipodi="http://sodipodi.sourceforge.net/DTD/sodipodi-0.dtd"
   xmlns="http://www.w3.org/2000/svg"
   xmlns:svg="http://www.w3.org/2000/svg"><defs
   id="defs36" /><sodipodi:namedview
   id="namedview36"
   pagecolor="#ffffff"
   bordercolor="#000000"
   borderopacity="0.25"
   inkscape:showpageshadow="2"
   inkscape:pageopacity="0.0"
   inkscape:pagecheckerboard="0"
   inkscape:deskcolor="#d1d1d1"
   inkscape:zoom="0.36782443"
   inkscape:cx="-95.154094"
   inkscape:cy="509.75407"
   inkscape:window-width="1920"
   inkscape:window-height="1008"
   inkscape:window-x="0"
   inkscape:window-y="0"
   inkscape:window-maximized="1"
   inkscape:current-layer="svg36" />
    <path
   d="M557.23,1242.2L671.401,1253.27L654.264,1294.51L570.451,1297.69L548.206,1285.38L557.23,1242.2Z"
   style="fill:rgb(150,184,186);"
   id="path1" />
    <path
   d="M163.769,873.455L163.769,939.989L143.908,972.76L73.402,921.121C65.753,891.28 65.185,863.208 74.891,837.705L94.752,815.362L145.979,834.373L163.769,873.455Z"
   style="fill:rgb(150,184,186);"
   id="path2" />
    <path
   d="M332.596,1223.17L451.571,1229.02L423.098,1280.12L354.967,1294.35L320.393,1275.29L332.596,1223.17Z"
   style="fill:rgb(150,184,186);"
   id="path3" />
    <path
   d="M424.919,605.829C424.919,605.829 426.62,605.079 823.234,660.196C873.991,667.25 883.111,673.974 882.462,757.852C880.674,988.852 882.572,757.891 880.276,988.587C878.942,1122.68 888.675,1116.59 832.809,1153.82C753.952,1206.36 829.621,1155.47 752.504,1204.83C720.968,1225.01 712.002,1225.84 633.418,1220.69C497.325,1211.77 287.533,1192.93 233.43,1184.66C187.282,1177.61 182.851,1176.57 182.328,1071.27C180.731,749.482 182.407,1071.65 180.17,747.215C179.753,686.798 182.415,676.689 244.166,657.608C423.091,602.32 424.919,605.829 424.919,605.829Z"
   style="fill:rgb(150,184,186);"
   id="path4" />
    <path
   d="M850.872,672.531C759.801,719.58 848.615,674.331 743.884,727.284C734.846,731.854 729.001,744.179 728.693,754.302C726.433,828.704 728.152,935.521 728.241,1173.31C728.252,1201.4 710.531,1228.25 660.11,1222.93C632.169,1219.98 743.43,1212.79 743.43,1212.79L872.03,1119.94L880.471,867.705L880.561,716.932C880.561,716.932 886.917,653.91 850.872,672.531Z"
   style="fill:rgb(93,139,139);"
   id="path5" />
    <path
   d="M697.112,1219.85L697.282,1216.24C700.368,1215.97 703.469,1215.72 706.523,1215.47C703.7,1217.17 700.57,1218.65 697.112,1219.85ZM728.562,758.809C735.558,761.42 736.494,765.402 736.487,778.156C736.286,1131.88 735.797,1200.18 735.627,1213.32C728.702,1213.79 717.937,1214.56 706.523,1215.47C722.043,1206.13 728.248,1189.94 728.241,1173.31C728.154,940.28 726.501,833.033 728.562,758.809Z"
   style="fill:rgb(84,107,115);"
   id="path6" />
    <path
   d="M778.727,1062.68L793.777,1178.2L834.452,1151.15L778.727,1062.68Z"
   style="fill:rgb(84,107,115);"
   id="path7" />
    <path
   d="M718.47,748.592C713.615,722.396 617.094,731.338 455.987,715.225L718.47,748.592Z"
   style="fill:rgb(207,225,217);"
   id="path8" />
    <path
   d="M439.347,714.349C233.577,694.627 215.747,682.543 212.582,706.722L439.347,714.349Z"
   style="fill:rgb(207,225,217);"
   id="path9" />
    <path
   d="M562.857,1260.21C587.374,1241.84 650.727,1248.71 646.114,1288.81C674.166,1275.32 679.714,1253.26 672.172,1226.21L553.641,1216.99L562.857,1260.21Z"
   style="fill:rgb(93,139,139);"
   id="path10" />
    <g
   transform="matrix(1,0,0,1,226.417,16.2861)"
   id="g11">
        <path
   d="M323.831,1201.75C326.793,1210.77 333.341,1231.83 333.136,1241.21C332.945,1249.96 299.313,1283.47 377.672,1282.32C431.178,1281.54 445.27,1275.11 447.138,1207.45"
   style="fill:none;stroke:rgb(63,38,26);stroke-width:18.67px;"
   id="path11" />
    </g>
    <path
   d="M338.459,1232.25C365.353,1222.21 414.099,1231.41 422.606,1275.72C443.637,1262.11 452.42,1237.47 453.113,1205.56L327.019,1195.39L338.459,1232.25Z"
   style="fill:rgb(93,139,139);"
   id="path12" />
    <path
   d="M324.118,1196.82C326.614,1205.88 333.352,1231.34 333.136,1241.21C332.945,1249.96 294.101,1290.83 372.461,1289.68C425.131,1288.9 447.739,1274 450.214,1208.99"
   style="fill:none;stroke:rgb(63,38,26);stroke-width:18.67px;stroke-linejoin:miter;stroke-miterlimit:1;"
   id="path13" />
    <path
   d="M155.431,860.921C164.445,930.431 133.512,944.181 78.966,924.973C110.932,955.479 144.816,976.395 180.754,987.039L181.251,883.265L155.431,860.921Z"
   style="fill:rgb(93,139,139);"
   id="path14" />
    <path
   d="M179.731,880.183C147.855,894.688 159.554,818.364 109.144,813.142C54.351,807.466 25.674,949.891 176.768,985.274"
   style="fill:none;stroke:rgb(63,38,26);stroke-width:18.67px;"
   id="path15" />
    <path
   d="M253.164,656.519C326.706,743.592 694.545,727.364 851.791,668.373L426.765,604.818L253.164,656.519Z"
   style="fill:rgb(84,107,115);"
   id="path16" />
    <path
   d="m 424.919,605.829 c 0,0 1.701,-0.75 398.315,54.367 50.757,7.054 59.877,13.778 59.228,97.656 -2.46767,199.05541 0.11,0.039 -2.186,230.735 -1.334,134.093 8.399,128.003 -47.467,165.233 -78.857,52.54 -3.188,1.65 -80.305,51.01 -31.536,20.18 -40.502,21.01 -119.086,15.86 -136.093,-8.92 -345.885,-27.76 -399.988,-36.03 -46.148,-7.05 -50.579,-8.09 -51.102,-113.39 -1.597,-321.788 0.079,0.38 -2.158,-324.055 -0.417,-60.417 2.245,-70.526 63.996,-89.607 178.925,-55.288 180.753,-51.779 180.753,-51.779 z"
   style="fill:none;stroke:#3f261a;stroke-width:18.67px"
   id="path17"
   sodipodi:nodetypes="cccccccccccc" />
    <path
   d="M798.619,981.948C819.865,971.799 850.325,1006 872.872,1044.11C896.293,1083.7 903.643,1124.48 871.221,1143.79C832.549,1166.84 813.62,1128.74 795.894,1087.18C774.327,1036.63 775.575,992.956 798.619,981.948Z"
   style="fill:rgb(150,184,186);"
   id="path18" />
    <path
   d="M808.425,1103.89C792.541,1035.59 802.591,998.478 854.502,1011.74L797.302,979.959C782.387,1005.59 780.436,1033.38 784.591,1062.18L808.425,1103.89Z"
   style="fill:rgb(93,139,139);"
   id="path19" />
    <path
   d="M798.619,981.948C819.865,971.799 850.325,1006 872.872,1044.11C896.293,1083.7 903.643,1124.48 871.221,1143.79C832.549,1166.84 813.62,1128.74 795.894,1087.18C774.327,1036.63 775.575,992.956 798.619,981.948Z"
   style="fill:none;stroke:rgb(63,38,26);stroke-width:18.67px;"
   id="path20" />
    <path
   d="M295.265,749.961C629.394,776.21 296.399,749.764 634.502,776.274C655.27,777.902 680.457,786.883 680.175,817.262C678.046,1045.92 678.387,822.879 677.791,1052.94C677.729,1076.99 672.37,1099.31 634.42,1096.87C444.351,1084.67 441.395,1084.63 278.954,1066.59C246.738,1063.01 235.681,1054.89 235.443,1028.93C233.308,796.487 235.79,1028.14 233.936,795.82C233.747,772.11 232.527,745.032 295.265,749.961Z"
   style="fill:rgb(207,225,217);stroke:rgb(63,38,26);stroke-width:18.67px;"
   id="path21" />
    <path
   d="M412.12,938.233C423.871,983.245 489.744,977.089 495.04,943.695"
   style="fill:none;stroke:rgb(63,38,26);stroke-width:18.67px;"
   id="path22" />
    <path
   d="M569.089,1143.36L602.286,1145.35"
   style="fill:none;stroke:rgb(63,38,26);stroke-width:18.67px;"
   id="path23" />
    <path
   d="M770.37,913.224L845.416,874.176"
   style="fill:none;stroke:rgb(63,38,26);stroke-width:18.67px;"
   id="path24" />
    <g
   transform="matrix(1,0,0,1,0,38.0316)"
   id="g25">
        <path
   d="M770.37,913.224L845.416,874.176"
   style="fill:none;stroke:rgb(63,38,26);stroke-width:18.67px;"
   id="path25" />
    </g>
    <g
   transform="matrix(1,0,0,1,0,-71.5381)"
   id="g26">
        <path
   d="M845.416,822.569L770.37,861.617L770.37,913.224L845.416,874.176L845.416,822.569Z"
   style="fill:rgb(41,67,94);stroke:rgb(63,38,26);stroke-width:18.67px;"
   id="path26" />
    </g>
    <path
   d="M562.949,67.694C554.007,181.148 642.674,222.008 724.911,323.552C878.856,513.64 830.552,722.624 506.429,712.793C60.682,699.272 168.58,342.516 562.949,67.694Z"
   style="fill:rgb(65,208,208);"
   id="path27" />
    <path
   d="M641.967,1147.73L660.576,1148.85"
   style="fill:none;stroke:rgb(63,38,26);stroke-width:18.67px;"
   id="path28" />
    <path
   d="M579.546,155.654C555.083,257.522 725.047,355.081 695.455,508.069C661.744,682.352 290.199,748.009 215.686,513.034C220.123,561.939 235.598,603.118 260.373,637.787L399.401,701.094L548.359,712.266L706.006,681.233L790.416,606.754L811.518,499.38L783.589,414.35L720.281,315.044L623.459,216.36L579.546,155.654"
   style="fill:rgb(28,153,165);"
   id="path29" />
    <path
   d="M333.394,364.316C356.554,390.245 417.164,299.493 444.257,266.249C468.225,236.841 510.659,176.758 495.956,164.855C486.72,157.377 440.864,210.243 418.463,237.729C391.369,270.972 310.096,338.234 333.394,364.316Z"
   style="fill:rgb(188,243,236);"
   id="path30" />
    <g
   transform="matrix(1.11188,0.486161,-0.482164,1.10274,161.596,-201.707)"
   id="g30">
        <ellipse
   cx="316.584"
   cy="413.853"
   rx="13.601"
   ry="19.702"
   style="fill:rgb(188,243,236);"
   id="ellipse30" />
    </g>
    <path
   d="M562.949,67.694C554.007,181.148 642.674,222.008 724.911,323.552C878.856,513.64 830.552,722.624 506.429,712.793C60.682,699.272 168.58,342.516 562.949,67.694Z"
   style="fill:none;stroke:rgb(63,38,26);stroke-width:18.67px;"
   id="path31" />
    <g
   transform="matrix(4.1274,0,0,4.08139,-1105.62,-2733.7)"
   id="g31">
        <ellipse
   cx="349.45"
   cy="891.822"
   rx="8.46"
   ry="10.494"
   style="fill:rgb(65,42,30);"
   id="ellipse31" />
    </g>
    <g
   transform="matrix(1.18269,0,0,1,-65.7128,-0.488105)"
   id="g32">
        <ellipse
   cx="349.45"
   cy="891.822"
   rx="8.46"
   ry="10.494"
   style="fill:white;"
   id="ellipse32" />
    </g>
    <g
   transform="matrix(4.13797,-0.267861,0.263146,4.06513,-1103.08,-2609.43)"
   id="g33">
        <ellipse
   cx="349.45"
   cy="891.822"
   rx="8.46"
   ry="10.494"
   style="fill:rgb(65,42,30);"
   id="ellipse33" />
    </g>
    <g
   transform="matrix(1.30476,0,0,1.19298,-90.5658,-185.823)"
   id="g34">
        <ellipse
   cx="292.164"
   cy="966.192"
   rx="26.693"
   ry="21.736"
   style="fill:rgb(249,167,142);"
   id="ellipse34" />
    </g>
    <g
   transform="matrix(1.30476,0,0,1.28281,238.159,-250.512)"
   id="g35">
        <ellipse
   cx="292.164"
   cy="966.192"
   rx="26.693"
   ry="21.736"
   style="fill:rgb(249,167,142);"
   id="ellipse35" />
    </g>
    <g
   transform="matrix(1.05666,0,0,1,196.143,15.7821)"
   id="g36">
        <ellipse
   cx="349.45"
   cy="891.822"
   rx="8.46"
   ry="10.494"
   style="fill:white;"
   id="ellipse36" />
    </g>
</svg>
